<svg id="Capa_1" enable-background="new 0 0 512 512" class="w-full h-full logo" viewBox="0 0 512 512" xmlns="http://www.w3.org/2000/svg"><g><path d="m512 256v-40h-37.117c-9.982-89.874-86.391-160-178.883-160h-20v47.928c-19.165-5.22-39.489-7.928-60-7.928l-1.149.003c-33.591.162-66.468 10.189-95.079 28.997-28.69 18.86-50.887 45.11-64.191 75.912-2.15 4.978-4.114 10.01-5.912 15.089h-49.669v40h36v40c0 66.168 53.832 120 120 120 33.084 0 60-26.916 60-60s-26.916-60-60-60h-20v40h20c11.028 0 20 8.972 20 20s-8.972 20-20 20c-44.112 0-80-35.888-80-80 0-13.576 1.34-26.938 3.989-40h167.727l68.553 68.553c4.436 73.227 65.407 131.446 139.731 131.446h20v-60c0-55.14-44.86-100-100-100h-31.716l-40-40zm-136 80c33.084 0 60 26.916 60 60v17.991c-39.123-7.974-70.017-38.868-77.991-77.991zm-160.955-199.998.955-.002c25.413 0 50.324 4.98 72.04 14.402l27.96 12.13v-65.108c30.092 4.323 57.119 18.258 77.874 38.576h-37.874v40h66.471c5.925 12.439 10.071 25.881 12.099 40h-341.918c20.952-47.628 70.017-79.745 122.393-79.998z"/></g></svg>